<svg viewBox="0 0 1024 1024" width="200" height="200"><path d="M384 250V134a70 70 0 0 0-70-70H134a70 70 0 0 0-70 70v116a70 70 0 0 0 70 70h180a70 70 0 0 0 70-70zm-80-10H144v-96h160zm586 464H710a70 70 0 0 0-70 70v116a70 70 0 0 0 70 70h180a70 70 0 0 0 70-70V774a70 70 0 0 0-70-70zm-10 176H720v-96h160zm10-496H710a70 70 0 0 0-70 70v116a70 70 0 0 0 70 70h180a70 70 0 0 0 70-70V454a70 70 0 0 0-70-70zm-10 176H720v-96h160zm-344-56H264v-80a40 40 0 0 0-40-40 40 40 0 0 0-40 40v432a40 40 0 0 0 40 40h312a40 40 0 0 0 40-40 40 40 0 0 0-40-40H264V584h272a40 40 0 0 0 40-40 40 40 0 0 0-40-40z"/></svg>