<svg viewBox="0 0 1025 1024" width="200.195" height="200"><defs><style/></defs><path d="M292.63 897.189H162.433c13.141-181.37 164.907-324.91 349.57-324.91 43.34 0 84.868 7.91 123.217 22.356l39.267-39.267c-2.04-.903-4.075-1.81-6.133-2.681a401.237 401.237 0 0 0-34.501-12.76c18.548-10.671 35.812-23.853 51.35-39.39 46.264-46.264 71.742-107.775 71.742-173.202 0-65.428-25.478-126.938-71.742-173.202C638.94 107.869 577.429 82.39 512.002 82.39s-126.937 25.479-173.2 71.743c-46.265 46.264-71.743 107.774-71.743 173.202 0 65.427 25.478 126.938 71.742 173.201 15.538 15.538 32.802 28.719 51.35 39.39a401.237 401.237 0 0 0-34.501 12.76c-47.832 20.232-90.785 49.19-127.664 86.069-36.88 36.88-65.837 79.832-86.068 127.664-20.952 49.536-31.575 102.14-31.575 156.353 0 14.13 11.454 25.584 25.584 25.584H292.63c14.131 0 25.584-11.455 25.584-25.584s-11.454-25.583-25.584-25.583zm25.597-569.853c0-106.849 86.927-193.777 193.776-193.777S705.78 220.487 705.78 327.336s-86.927 193.776-193.776 193.776-193.776-86.928-193.776-193.776zM882.089 766.42c-18.228-43.095-43.56-82.212-75.368-116.513l-36.323 36.323c51.763 56.497 85.305 129.946 91.174 210.959H731.35c-14.13 0-25.584 11.454-25.584 25.584s11.455 25.584 25.584 25.584h156.73c14.13 0 25.584-11.455 25.584-25.584 0-54.212-10.624-106.817-31.575-156.353zm-90.541-215.407c-9.992-9.99-26.19-9.99-36.18 0l-244.121 244.12-107.032-107.03c-9.992-9.99-26.19-9.99-36.18 0-9.992 9.991-9.992 26.19 0 36.18l125.122 125.122c4.996 4.995 11.542 7.493 18.09 7.493s13.096-2.498 18.092-7.493l262.211-262.21c9.989-9.99 9.989-26.19-.002-36.182z"/></svg>