<svg viewBox="0 0 1024 1024" width="200" height="200"><path d="M300.977 643.701a42.195 42.195 0 1084.391 0 42.195 42.195 0 00-84.39 0zm590.85-48.2c72.674-18.83 126.586-84.279 126.586-162.822a168.827 168.827 0 00-337.609 0c0 78.543 53.868 143.993 126.564 162.821v385.788l84.414-84.414v-42.195h84.39V812.46h-84.39v-84.368h84.39v-42.195h-84.39V595.5zm-42.195-78.409a84.391 84.391 0 11-.046-168.782 84.391 84.391 0 01.046 168.782zm-717.436-84.39c.09 0 .112-.091.203-.091 41.992 71.883 111.257 126.677 189.687 126.677 78.476 0 147.719-54.816 189.688-126.677.09 0 .136.09.226.09 23.322 0 84.391-61.092 84.391-84.413s-18.897-42.196-42.173-42.196c-.384 0-.7.226-1.106.226.632-7.134 1.106-14.291 1.106-21.312 0-128.212-103.942-232.11-232.132-232.11-128.166 0-232.108 103.92-232.108 232.11 0 7.044.474 14.178 1.106 21.312-.43 0-.723-.226-1.106-.226-23.322 0-42.173 18.874-42.173 42.196s61.024 84.413 84.39 84.413zm330.09 198.83l-76.872 307.583h-30.208l30.185-211h-84.414l30.14 211h-30.14l-76.895-307.583C112.102 683.413 5.564 794.286 5.564 896.897c0 139.861 197.793 126.609 337.632 126.609 139.816 0 337.631 13.252 337.631-126.61 0-102.61-106.584-213.483-218.54-265.364z"/></svg>